<svg width="128" height="128" viewBox="0 0 128 128" fill="none" xmlns="http://www.w3.org/2000/svg">
<g clip-path="url(#clip0_90_288)">
<path d="M64 128C99.3462 128 128 99.3462 128 64C128 28.6538 99.3462 0 64 0C28.6538 0 0 28.6538 0 64C0 99.3462 28.6538 128 64 128Z" fill="black"/>
<path d="M64 122C96.0325 122 122 96.0325 122 64C122 31.9675 96.0325 6 64 6C31.9675 6 6 31.9675 6 64C6 96.0325 31.9675 122 64 122Z" fill="url(#paint0_linear_90_288)"/>
<path d="M108.351 14.5078C109.973 14.5078 111.336 14.5727 112.44 14.7025V15.6762C108.415 15.8709 104.943 16.8446 102.022 18.5972C98.7112 20.6094 96.342 22.4919 94.9139 24.2445C93.5508 25.9321 92.4473 27.3277 91.6034 28.4312C90.8245 29.4698 90.0456 30.7356 89.2666 32.2285C88.0333 34.5004 86.8974 36.7398 85.8588 38.9468L59.7645 96.0037C56.7786 102.43 55.1883 106.682 54.9936 108.759H54.1173L24.6152 45.1783C23.6415 43.3608 22.4082 41.9976 20.9152 41.0889C19.4223 40.1152 17.8969 39.6284 16.339 39.6284H15.5601V38.6547H46.5227V39.6284H45.7437C44.3157 39.6284 43.2447 40.0828 42.5306 40.9915C41.8815 41.8354 41.557 42.6468 41.557 43.4257C41.557 44.2046 41.6868 44.9836 41.9464 45.7625L58.4988 85.9749L78.6537 38.9468C81.7045 31.7417 85.2746 26.3216 89.364 22.6866C95.4007 17.2341 101.73 14.5078 108.351 14.5078Z" fill="white"/>
</g>
<defs>
<linearGradient id="paint0_linear_90_288" x1="64" y1="120" x2="64" y2="8.00001" gradientUnits="userSpaceOnUse">
<stop stop-color="#8E1502"/>
<stop offset="1" stop-color="#8E1502" stop-opacity="0"/>
</linearGradient>
<clipPath id="clip0_90_288">
<rect width="128" height="128" fill="white"/>
</clipPath>
</defs>
</svg>
